<svg width="689" height="749" viewBox="0 0 689 749" fill="none" xmlns="http://www.w3.org/2000/svg">
<rect x="117.5" y="8.5" width="463" height="520" stroke="white" stroke-width="17"/>
<path d="M51.284 740L76.557 651.227H94.591L119.737 740H104.37L98.782 718.156H72.366L66.651 740H51.284ZM75.16 705.71H95.988L85.955 664.308H85.193L75.16 705.71ZM154.788 666.975C158.852 665.028 162.112 664.054 164.567 664.054C167.022 664.054 169.266 664.393 171.298 665.07L170.155 678.278C168.038 678.109 166.133 678.024 164.44 678.024C158.09 678.024 152.29 679.887 147.041 683.612V740H132.309V665.705H141.58C142.342 669.684 142.977 672.267 143.485 673.452H144.247C147.295 670.997 150.809 668.838 154.788 666.975ZM186.54 715.87V680.945H178.031V671.801L187.175 670.023L190.096 652.497H201.399V669.769H216.258V681.199H201.272V716.505C201.272 722.178 201.611 725.691 202.288 727.046C203.05 728.316 204.955 728.951 208.003 728.951L216.131 728.57V740.381C213.252 741.058 209.908 741.397 206.098 741.397C199.409 741.397 194.456 739.661 191.239 736.19C188.106 732.634 186.54 725.861 186.54 715.87ZM251.582 740L276.855 651.227H294.889L320.035 740H304.668L299.08 718.156H272.664L266.949 740H251.582ZM275.458 705.71H296.286L286.253 664.308H285.491L275.458 705.71ZM334.004 715.87V680.945H325.495V671.801L334.639 670.023L337.56 652.497H348.863V669.769H363.722V681.199H348.736V716.505C348.736 722.178 349.075 725.691 349.752 727.046C350.514 728.316 352.419 728.951 355.467 728.951L363.595 728.57V740.381C360.716 741.058 357.372 741.397 353.562 741.397C346.873 741.397 341.92 739.661 338.703 736.19C335.57 732.634 334.004 725.861 334.004 715.87ZM382.745 715.87V680.945H374.236V671.801L383.38 670.023L386.301 652.497H397.604V669.769H412.463V681.199H397.477V716.505C397.477 722.178 397.816 725.691 398.493 727.046C399.255 728.316 401.16 728.951 404.208 728.951L412.336 728.57V740.381C409.457 741.058 406.113 741.397 402.303 741.397C395.614 741.397 390.661 739.661 387.444 736.19C384.311 732.634 382.745 725.861 382.745 715.87ZM445.71 741.651C439.191 741.651 433.942 739.619 429.962 735.555C426.068 731.406 424.12 725.268 424.12 717.14C424.12 708.927 426.745 702.958 431.994 699.233C437.328 695.508 444.991 693.645 454.981 693.645L467.173 693.772C467.173 685.559 466.496 680.606 465.141 678.913C463.871 677.135 461.331 676.246 457.521 676.246C453.711 676.246 449.436 676.712 444.694 677.643C440.038 678.574 435.085 680.014 429.835 681.961L425.898 671.166C427.084 670.658 428.65 670.023 430.597 669.261C432.629 668.414 436.355 667.356 441.773 666.086C447.192 664.731 452.145 664.054 456.632 664.054C473.481 664.054 481.905 673.198 481.905 691.486V740H472.507L470.475 731.999H469.84C468.909 732.761 467.639 733.692 466.03 734.793C464.506 735.809 461.585 737.206 457.267 738.984C453.034 740.762 449.182 741.651 445.71 741.651ZM467.173 705.71C463.702 705.202 459.003 704.948 453.076 704.948C447.15 704.948 443.467 705.668 442.027 707.107C440.165 708.8 439.233 712.06 439.233 716.886C439.233 721.627 439.826 724.887 441.011 726.665C442.281 728.358 444.271 729.205 446.98 729.205C449.774 729.205 452.822 728.739 456.124 727.808C459.511 726.792 463.194 725.353 467.173 723.49V705.71ZM552.249 723.617C553.181 726.496 554.62 730.094 556.567 734.412C555.805 734.92 554.747 735.597 553.392 736.444C552.122 737.206 549.371 738.264 545.137 739.619C540.904 740.974 536.586 741.651 532.183 741.651C522.447 741.651 514.784 738.476 509.196 732.126C503.608 725.776 500.814 715.955 500.814 702.662C500.814 687.93 504.201 677.643 510.974 671.801C517.07 666.636 525.114 664.054 535.104 664.054C541.708 664.054 548.228 664.858 554.662 666.467L553.011 678.024C543.783 676.839 536.713 676.246 531.802 676.246C526.892 676.246 523.42 677.262 521.388 679.294C517.832 683.104 516.054 691.232 516.054 703.678C516.054 716.124 518.467 724.125 523.293 727.681C525.071 728.951 527.357 729.586 530.151 729.586C533.03 729.586 536.29 729.078 539.93 728.062C543.571 727.046 547.677 725.564 552.249 723.617ZM585.927 644.369V740H571.195L571.83 699.233L571.195 644.369H585.927ZM616.407 740L586.054 700.122L614.375 666.086H633.171L602.056 699.487V700.122L635.457 740H616.407Z" fill="white"/>
<path d="M205.207 174H181.357L211.507 68.55H239.707L269.857 174H246.007L240.007 150.6H211.207L205.207 174ZM235.507 130.8L226.057 90.15H225.157L215.707 130.8H235.507Z" fill="white"/>
<path d="M442.207 440H418.357L448.507 334.55H476.707L506.857 440H483.007L477.007 416.6H448.207L442.207 440ZM472.507 396.8L463.057 356.15H462.157L452.707 396.8H472.507Z" fill="white"/>
<line x1="200.343" y1="443.075" x2="496.343" y2="103.075" stroke="white" stroke-width="15"/>
</svg>
